# xmcd
#
# Track frame offsets:
# 150
# 18613
# 33843
# 49620
# 60108
# 84498
# 106505
# 123053
# 152255
# 169870
# 182717
# 200693
#
# Disc length: 2881 seconds
#
# Revision: 0
# Processed by: cddbd v1.5.2PL0 Copyright (c) Steve Scherf et al.
# Submitted via: Axialis_AX_CDPlayer 2.6
#
DISCID=820b3f0c
DTITLE=Various Artist - Living Country Blues USA Volume 5 - Mississippi Del
DTITLE=ta \nBlues
DYEAR=1900
DGENRE=
TTITLE0=Big Fat Mama - James "Son" Thomas
TTITLE1=I Laid And I Wondered - James "Son" Thomas and Cleveland "Broomman" Jo
TTITLE1=nes
TTITLE2=Bull Dog Blues - CeDell "Big G" Davis
TTITLE3=My babe - Othar Turner
TTITLE4=Love Blues - CeDell "Big G" Davis
TTITLE5=Cairo Blues - James "Son" Thomas
TTITLE6=Hello Central - CeDell "Big G" Davis
TTITLE7=Catfish Blues - James "Son" Thomas
TTITLE8=Goin' To Arkansas City - Walter Brown
TTITLE9=Jazz Boogie Woogie - Stonewall Mays
TTITLE10=Let Me Play With Your Poodle - CeDell "Big G" Davis
TTITLE11=Stormy Weather Blues - Stonewall Mays
EXTD=
EXTT0=
EXTT1=
EXTT2=
EXTT3=
EXTT4=
EXTT5=
EXTT6=
EXTT7=
EXTT8=
EXTT9=
EXTT10=
EXTT11=
PLAYORDER=
